{
  "accessors": [
    {
      "bufferView": 2,
      "componentType": 5126,
      "count": 7047,
      "max": [
        5.8570561408996582,
        2.2094755172729492,
        0.97548341751098633
      ],
      "min": [
        -5.5131072998046875,
        -3.0783829689025879,
        -0.99164962768554688
      ],
      "type": "VEC3"
    },
    {
      "bufferView": 2,
      "byteOffset": 84564,
      "componentType": 5126,
      "count": 7047,
      "max": [
        0.9999922513961792,
        0.9999997615814209,
        0.99313229322433472
      ],
      "min": [
        -0.99864840507507324,
        -0.9999997615814209,
        -0.99421441555023193
      ],
      "type": "VEC3"
    },
    {
      "bufferView": 0,
      "componentType": 5125,
      "count": 41433,
      "max": [
        7046
      ],
      "min": [
        0
      ],
      "type": "SCALAR"
    },
    {
      "bufferView": 2,
      "byteOffset": 169128,
      "componentType": 5126,
      "count": 9000,
      "max": [
        9.5199642181396484,
        1.3741636276245117,
        1.9621765613555908
      ],
      "min": [
        -0.052889823913574219,
        -4.5496759414672852,
        -0.38184881210327148
      ],
      "type": "VEC3"
    },
    {
      "bufferView": 2,
      "byteOffset": 277128,
      "componentType": 5126,
      "count": 9000,
      "max": [
        1,
        1,
        1
      ],
      "min": [
        -1,
        -1,
        -1
      ],
      "type": "VEC3"
    },
    {
      "bufferView": 0,
      "byteOffset": 165732,
      "componentType": 5125,
      "count": 39924,
      "max": [
        8999
      ],
      "min": [
        0
      ],
      "type": "SCALAR"
    },
    {
      "bufferView": 2,
      "byteOffset": 385128,
      "componentType": 5126,
      "count": 23136,
      "max": [
        1.0000002384185791,
        124.42008209228516,
        68.959060668945312
      ],
      "min": [
        -141.00286865234375,
        -1,
        -1.0000143051147461
      ],
      "type": "VEC3"
    },
    {
      "bufferView": 2,
      "byteOffset": 662760,
      "componentType": 5126,
      "count": 23136,
      "max": [
        1,
        1,
        1
      ],
      "min": [
        -1,
        -1,
        -1
      ],
      "type": "VEC3"
    },
    {
      "bufferView": 0,
      "byteOffset": 325428,
      "componentType": 5125,
      "count": 138240,
      "max": [
        23135
      ],
      "min": [
        0
      ],
      "type": "SCALAR"
    },
    {
      "bufferView": 2,
      "byteOffset": 940392,
      "componentType": 5126,
      "count": 1248,
      "max": [
        0.36339998245239258,
        4.3585257530212402,
        2.2005109786987305
      ],
      "min": [
        -4.6805915832519531,
        -0.058519415557384491,
        -0.053409576416015625
      ],
      "type": "VEC3"
    },
    {
      "bufferView": 2,
      "byteOffset": 955368,
      "componentType": 5126,
      "count": 1248,
      "max": [
        0.99881166219711304,
        0.99881166219711304,
        1
      ],
      "min": [
        -0.99881166219711304,
        -0.99881166219711304,
        -1
      ],
      "type": "VEC3"
    },
    {
      "bufferView": 3,
      "componentType": 5126,
      "count": 1248,
      "max": [
        0.99881166219711304,
        0.82983702421188354,
        4.7545886445732322e-06,
        1
      ],
      "min": [
        -0.99881166219711304,
        -1,
        -1.7062127881217748e-05,
        1
      ],
      "type": "VEC4"
    },
    {
      "bufferView": 1,
      "componentType": 5126,
      "count": 1248,
      "max": [
        1,
        0.99999994039535522
      ],
      "min": [
        0,
        0
      ],
      "type": "VEC2"
    },
    {
      "bufferView": 1,
      "byteOffset": 9984,
      "componentType": 5126,
      "count": 1248,
      "max": [
        1,
        0.99999994039535522
      ],
      "min": [
        0,
        0
      ],
      "type": "VEC2"
    },
    {
      "bufferView": 0,
      "byteOffset": 878388,
      "componentType": 5125,
      "count": 3312,
      "max": [
        1247
      ],
      "min": [
        0
      ],
      "type": "SCALAR"
    },
    {
      "bufferView": 2,
      "byteOffset": 970344,
      "componentType": 5126,
      "count": 264,
      "max": [
        25.543821334838867,
        1.0000016689300537,
        39.522171020507812
      ],
      "min": [
        -1.0000001192092896,
        -16.138570785522461,
        -1.0000321865081787
      ],
      "type": "VEC3"
    },
    {
      "bufferView": 2,
      "byteOffset": 973512,
      "componentType": 5126,
      "count": 264,
      "max": [
        0.99686431884765625,
        0.86725813150405884,
        1
      ],
      "min": [
        -1,
        -1,
        -1
      ],
      "type": "VEC3"
    },
    {
      "bufferView": 0,
      "byteOffset": 891636,
      "componentType": 5125,
      "count": 1176,
      "max": [
        263
      ],
      "min": [
        0
      ],
      "type": "SCALAR"
    },
    {
      "bufferView": 2,
      "byteOffset": 976680,
      "componentType": 5126,
      "count": 1728,
      "max": [
        1.0351524353027344,
        12.023500442504883,
        19.116331100463867
      ],
      "min": [
        -15.961919784545898,
        11.242143630981445,
        -1.2823268175125122
      ],
      "type": "VEC3"
    },
    {
      "bufferView": 2,
      "byteOffset": 997416,
      "componentType": 5126,
      "count": 1728,
      "max": [
        0.99797928333282471,
        1,
        0.9953121542930603
      ],
      "min": [
        -0.99798119068145752,
        -0.99667870998382568,
        -0.9953121542930603
      ],
      "type": "VEC3"
    },
    {
      "bufferView": 0,
      "byteOffset": 896340,
      "componentType": 5125,
      "count": 9168,
      "max": [
        1727
      ],
      "min": [
        0
      ],
      "type": "SCALAR"
    },
    {
      "bufferView": 2,
      "byteOffset": 1018152,
      "componentType": 5126,
      "count": 384,
      "max": [
        1,
        11.280792236328125,
        18.833988189697266
      ],
      "min": [
        -15.92676830291748,
        -39.168880462646484,
        -1
      ],
      "type": "VEC3"
    },
    {
      "bufferView": 2,
      "byteOffset": 1022760,
      "componentType": 5126,
      "count": 384,
      "max": [
        0.99691927433013916,
        1,
        0.99691927433013916
      ],
      "min": [
        -0.99691927433013916,
        -1,
        -0.99691927433013916
      ],
      "type": "VEC3"
    },
    {
      "bufferView": 0,
      "byteOffset": 933012,
      "componentType": 5125,
      "count": 1104,
      "max": [
        383
      ],
      "min": [
        0
      ],
      "type": "SCALAR"
    }
  ],
  "asset": {
    "extras": {
      "author": "vaedskalw (https://sketchfab.com/vaedskalw)",
      "license": "CC-BY-4.0 (http://creativecommons.org/licenses/by/4.0/)",
      "source": "https://sketchfab.com/3d-models/slide-playground-e59c8559ba42463881732790dcbfbb3c",
      "title": "Slide PlayGround"
    },
    "generator": "Sketchfab-10.15.0",
    "version": "2.0"
  },
  "bufferViews": [
    {
      "buffer": 0,
      "byteLength": 937428,
      "byteOffset": 0,
      "name": "floatBufferViews",
      "target": 34963
    },
    {
      "buffer": 0,
      "byteLength": 19968,
      "byteOffset": 937428,
      "byteStride": 8,
      "name": "floatBufferViews",
      "target": 34962
    },
    {
      "buffer": 0,
      "byteLength": 1027368,
      "byteOffset": 957396,
      "byteStride": 12,
      "name": "floatBufferViews",
      "target": 34962
    },
    {
      "buffer": 0,
      "byteLength": 19968,
      "byteOffset": 1984764,
      "byteStride": 16,
      "name": "floatBufferViews",
      "target": 34962
    }
  ],
  "buffers": [
    {
      "byteLength": 2004732,
      "uri": "scene.bin"
    }
  ],
  "images": [
    {
      "uri": "textures/WOOD_baseColor.jpeg"
    },
    {
      "uri": "textures/WOOD_normal.png"
    }
  ],
  "materials": [
    {
      "doubleSided": true,
      "emissiveFactor": [
        0,
        0,
        0
      ],
      "name": "Blue",
      "pbrMetallicRoughness": {
        "baseColorFactor": [
          0,
          0.30605900000000003,
          0.80000000000000004,
          1
        ],
        "metallicFactor": 0,
        "roughnessFactor": 0.5
      }
    },
    {
      "doubleSided": true,
      "emissiveFactor": [
        0,
        0,
        0
      ],
      "name": "Metall",
      "pbrMetallicRoughness": {
        "baseColorFactor": [
          0.50006270972907685,
          0.50006270972907685,
          0.50006270972907685,
          1
        ],
        "metallicFactor": 1,
        "roughnessFactor": 0.20802734566149297
      }
    },
    {
      "doubleSided": true,
      "emissiveFactor": [
        0,
        0,
        0
      ],
      "name": "WOOD",
      "normalTexture": {
        "index": 1,
        "scale": 1,
        "texCoord": 0
      },
      "pbrMetallicRoughness": {
        "baseColorFactor": [
          1,
          1,
          1,
          1
        ],
        "baseColorTexture": {
          "index": 0,
          "texCoord": 0
        },
        "metallicFactor": 0,
        "roughnessFactor": 0.5
      }
    },
    {
      "doubleSided": true,
      "emissiveFactor": [
        0,
        0,
        0
      ],
      "name": "Yellow",
      "pbrMetallicRoughness": {
        "baseColorFactor": [
          0.79999999999999993,
          0.62044099999999991,
          0,
          1
        ],
        "metallicFactor": 0,
        "roughnessFactor": 0.5
      }
    },
    {
      "doubleSided": true,
      "emissiveFactor": [
        0,
        0,
        0
      ],
      "name": "Orange",
      "pbrMetallicRoughness": {
        "baseColorFactor": [
          1,
          0.19880722655194549,
          0,
          1
        ],
        "metallicFactor": 0.04415460801567659,
        "roughnessFactor": 0.35369200134666312
      }
    },
    {
      "doubleSided": true,
      "emissiveFactor": [
        0,
        0,
        0
      ],
      "name": "material",
      "pbrMetallicRoughness": {
        "baseColorFactor": [
          1,
          0,
          0,
          1
        ],
        "metallicFactor": 0.17161118174020046,
        "roughnessFactor": 0.5
      }
    }
  ],
  "meshes": [
    {
      "primitives": [
        {
          "attributes": {
            "NORMAL": 1,
            "POSITION": 0
          },
          "indices": 2,
          "material": 0,
          "mode": 4
        }
      ]
    },
    {
      "primitives": [
        {
          "attributes": {
            "NORMAL": 4,
            "POSITION": 3
          },
          "indices": 5,
          "material": 1,
          "mode": 4
        }
      ]
    },
    {
      "primitives": [
        {
          "attributes": {
            "NORMAL": 7,
            "POSITION": 6
          },
          "indices": 8,
          "material": 1,
          "mode": 4
        }
      ]
    },
    {
      "primitives": [
        {
          "attributes": {
            "NORMAL": 10,
            "POSITION": 9,
            "TANGENT": 11,
            "TEXCOORD_0": 12,
            "TEXCOORD_1": 13
          },
          "indices": 14,
          "material": 2,
          "mode": 4
        }
      ]
    },
    {
      "primitives": [
        {
          "attributes": {
            "NORMAL": 16,
            "POSITION": 15
          },
          "indices": 17,
          "material": 3,
          "mode": 4
        }
      ]
    },
    {
      "primitives": [
        {
          "attributes": {
            "NORMAL": 19,
            "POSITION": 18
          },
          "indices": 20,
          "material": 4,
          "mode": 4
        }
      ]
    },
    {
      "primitives": [
        {
          "attributes": {
            "NORMAL": 22,
            "POSITION": 21
          },
          "indices": 23,
          "material": 5,
          "mode": 4
        }
      ]
    }
  ],
  "nodes": [
    {
      "children": [
        1
      ],
      "name": "RootNode (gltf orientation matrix)",
      "rotation": [
        -0.70710678118654746,
        -0,
        -0,
        0.70710678118654757
      ]
    },
    {
      "children": [
        2
      ],
      "name": "RootNode (model correction matrix)"
    },
    {
      "children": [
        3
      ],
      "name": "root"
    },
    {
      "children": [
        4,
        6,
        8,
        10,
        12,
        14,
        16
      ],
      "matrix": [
        1,
        0,
        0,
        0,
        0,
        2.2204460492503131e-16,
        1,
        0,
        0,
        -1,
        2.2204460492503131e-16,
        0,
        0,
        0,
        0,
        1
      ],
      "name": "GLTF_SceneRootNode"
    },
    {
      "children": [
        5
      ],
      "matrix": [
        0,
        0,
        -1,
        0,
        0,
        1,
        0,
        0,
        0.99005603790283203,
        0,
        0,
        0,
        -0.015662670135498047,
        2.9654147624969482,
        -4.0941934585571289,
        1
      ],
      "name": "NurbsPath_1"
    },
    {
      "mesh": 0,
      "name": ""
    },
    {
      "children": [
        7
      ],
      "matrix": [
        0.71991860866546631,
        0,
        0,
        0,
        0,
        1,
        0,
        0,
        0,
        0,
        1,
        0,
        -0.92192625999450684,
        5.0528426170349121,
        -9.5512599945068359,
        1
      ],
      "name": "Cylinder.005_2"
    },
    {
      "mesh": 1,
      "name": ""
    },
    {
      "children": [
        9
      ],
      "matrix": [
        0.034853268414735794,
        0,
        0,
        0,
        0,
        0.034853268414735794,
        0,
        0,
        0,
        0,
        0.034853268414735794,
        0,
        5.8268957138061523,
        0.3064570426940918,
        -9.9454889297485352,
        1
      ],
      "name": "ZAKLEP_3"
    },
    {
      "mesh": 2,
      "name": ""
    },
    {
      "children": [
        11
      ],
      "matrix": [
        1,
        0,
        0,
        0,
        0,
        1,
        0,
        0,
        0,
        0,
        1,
        0,
        5.5455560684204102,
        0.30376330018043518,
        -9.8239517211914062,
        1
      ],
      "name": "STUPKA_4"
    },
    {
      "mesh": 3,
      "name": ""
    },
    {
      "children": [
        13
      ],
      "matrix": [
        0.18582777678966522,
        0,
        0,
        0,
        0,
        0.31181243062019348,
        0,
        0,
        0,
        0,
        0.058650091290473938,
        0,
        1.2327008247375488,
        5.0375843048095703,
        -9.8948736190795898,
        1
      ],
      "name": "STAIRS_5"
    },
    {
      "mesh": 4,
      "name": ""
    },
    {
      "children": [
        15
      ],
      "matrix": [
        0.12595449388027191,
        0,
        0,
        0,
        0,
        0.12595449388027191,
        0,
        0,
        0,
        0,
        0.12595449388027191,
        0,
        0.95682841539382935,
        4.9390859603881836,
        -9.8775339126586914,
        1
      ],
      "name": "NAVERSHIE_6"
    },
    {
      "mesh": 5,
      "name": ""
    },
    {
      "children": [
        17
      ],
      "matrix": [
        0.12595449388027191,
        0,
        0,
        0,
        0,
        0.12595449388027191,
        0,
        0,
        0,
        0,
        0.12595449388027191,
        0,
        0.95682859420776367,
        4.9390859603881836,
        -9.8775348663330078,
        1
      ],
      "name": "PERILO_7"
    },
    {
      "mesh": 6,
      "name": ""
    }
  ],
  "samplers": [
    {
      "magFilter": 9729,
      "minFilter": 9987,
      "wrapS": 10497,
      "wrapT": 10497
    }
  ],
  "scene": 0,
  "scenes": [
    {
      "name": "OSG_Scene",
      "nodes": [
        0
      ]
    }
  ],
  "textures": [
    {
      "sampler": 0,
      "source": 0
    },
    {
      "sampler": 0,
      "source": 1
    }
  ]
}

