{
  "accessors": [
    {
      "bufferView": 2,
      "componentType": 5126,
      "count": 63840,
      "max": [
        10.628815650939941,
        4.2618412971496582,
        14.741874694824219
      ],
      "min": [
        -10.534150123596191,
        -4.2608065605163574,
        0.013047218322753906
      ],
      "type": "VEC3"
    },
    {
      "bufferView": 2,
      "byteOffset": 766080,
      "componentType": 5126,
      "count": 63840,
      "max": [
        1,
        1,
        1
      ],
      "min": [
        -1,
        -1,
        -1
      ],
      "type": "VEC3"
    },
    {
      "bufferView": 3,
      "componentType": 5126,
      "count": 63840,
      "max": [
        1,
        1,
        1,
        1
      ],
      "min": [
        -1,
        -1,
        -1,
        1
      ],
      "type": "VEC4"
    },
    {
      "bufferView": 1,
      "componentType": 5126,
      "count": 63840,
      "max": [
        0.99361950159072876,
        0.98824161291122437
      ],
      "min": [
        0.0067359954118728638,
        0.0060272207483649254
      ],
      "type": "VEC2"
    },
    {
      "bufferView": 1,
      "byteOffset": 510720,
      "componentType": 5126,
      "count": 63840,
      "max": [
        0.99361950159072876,
        0.98824161291122437
      ],
      "min": [
        0.0067359954118728638,
        0.0060272207483649254
      ],
      "type": "VEC2"
    },
    {
      "bufferView": 1,
      "byteOffset": 1021440,
      "componentType": 5126,
      "count": 63840,
      "max": [
        0.99361950159072876,
        0.98824161291122437
      ],
      "min": [
        0.0067359954118728638,
        0.0060272207483649254
      ],
      "type": "VEC2"
    },
    {
      "bufferView": 0,
      "componentType": 5125,
      "count": 227844,
      "max": [
        63839
      ],
      "min": [
        0
      ],
      "type": "SCALAR"
    }
  ],
  "asset": {
    "extras": {
      "author": "3d-mesh-factory a.k.a. Glowbox Designs (https://sketchfab.com/ra3id)",
      "license": "CC-BY-4.0 (http://creativecommons.org/licenses/by/4.0/)",
      "source": "https://sketchfab.com/3d-models/swing-set-8712f53da0e04736802f1bc84ca7df97",
      "title": "Swing Set"
    },
    "generator": "Sketchfab-9.37.0",
    "version": "2.0"
  },
  "bufferViews": [
    {
      "buffer": 0,
      "byteLength": 911376,
      "byteOffset": 0,
      "name": "floatBufferViews",
      "target": 34963
    },
    {
      "buffer": 0,
      "byteLength": 1532160,
      "byteOffset": 911376,
      "byteStride": 8,
      "name": "floatBufferViews",
      "target": 34962
    },
    {
      "buffer": 0,
      "byteLength": 1532160,
      "byteOffset": 2443536,
      "byteStride": 12,
      "name": "floatBufferViews",
      "target": 34962
    },
    {
      "buffer": 0,
      "byteLength": 1021440,
      "byteOffset": 3975696,
      "byteStride": 16,
      "name": "floatBufferViews",
      "target": 34962
    }
  ],
  "buffers": [
    {
      "byteLength": 4997136,
      "uri": "scene.bin"
    }
  ],
  "images": [
    {
      "uri": "textures/ss_2_baseColor.png"
    },
    {
      "uri": "textures/ss_2_metallicRoughness.png"
    },
    {
      "uri": "textures/ss_2_normal.png"
    }
  ],
  "materials": [
    {
      "doubleSided": true,
      "emissiveFactor": [
        0,
        0,
        0
      ],
      "name": "ss_2",
      "normalTexture": {
        "index": 2,
        "scale": 1,
        "texCoord": 0
      },
      "occlusionTexture": {
        "index": 1,
        "strength": 1,
        "texCoord": 0
      },
      "pbrMetallicRoughness": {
        "baseColorFactor": [
          1,
          1,
          1,
          1
        ],
        "baseColorTexture": {
          "index": 0,
          "texCoord": 0
        },
        "metallicFactor": 1,
        "metallicRoughnessTexture": {
          "index": 1,
          "texCoord": 0
        },
        "roughnessFactor": 1
      }
    }
  ],
  "meshes": [
    {
      "name": "Frame Top Bar.002_ss 2_0",
      "primitives": [
        {
          "attributes": {
            "NORMAL": 1,
            "POSITION": 0,
            "TANGENT": 2,
            "TEXCOORD_0": 3,
            "TEXCOORD_1": 4,
            "TEXCOORD_2": 5
          },
          "indices": 6,
          "material": 0,
          "mode": 4
        }
      ]
    }
  ],
  "nodes": [
    {
      "children": [
        1
      ],
      "name": "RootNode (gltf orientation matrix)",
      "rotation": [
        -0.70710678118654746,
        -0,
        -0,
        0.70710678118654757
      ]
    },
    {
      "children": [
        2
      ],
      "matrix": [
        0.14729741215705872,
        0,
        0,
        0,
        0,
        0.14729741215705872,
        0,
        0,
        0,
        0,
        0.14729741215705872,
        0,
        0,
        0,
        0,
        1
      ],
      "name": "RootNode (model correction matrix)"
    },
    {
      "children": [
        3
      ],
      "matrix": [
        1,
        0,
        0,
        0,
        0,
        0,
        1,
        0,
        0,
        -1,
        0,
        0,
        0,
        0,
        0,
        1
      ],
      "name": "23fd42ff700749a8923058e400f2b956.fbx"
    },
    {
      "children": [
        4
      ],
      "name": "RootNode"
    },
    {
      "children": [
        5
      ],
      "matrix": [
        100,
        0,
        0,
        0,
        0,
        -1.6292067939183141e-05,
        -99.999999999998678,
        0,
        0,
        99.999999999998678,
        -1.6292067939183141e-05,
        0,
        0,
        0,
        0,
        1
      ],
      "name": "Frame Top Bar.002"
    },
    {
      "mesh": 0,
      "name": "Frame Top Bar.002_ss 2_0"
    }
  ],
  "samplers": [
    {
      "magFilter": 9729,
      "minFilter": 9987,
      "wrapS": 10497,
      "wrapT": 10497
    }
  ],
  "scene": 0,
  "scenes": [
    {
      "name": "OSG_Scene",
      "nodes": [
        0
      ]
    }
  ],
  "textures": [
    {
      "sampler": 0,
      "source": 0
    },
    {
      "sampler": 0,
      "source": 1
    },
    {
      "sampler": 0,
      "source": 2
    }
  ]
}

