{
  "accessors": [
    {
      "bufferView": 2,
      "componentType": 5126,
      "count": 3698,
      "max": [
        4.0007319450378418,
        1.682358980178833,
        0.90082401037216187
      ],
      "min": [
        -4.2410621643066406,
        -1.3787059783935547,
        -0.90082401037216187
      ],
      "type": "VEC3"
    },
    {
      "bufferView": 2,
      "byteOffset": 44376,
      "componentType": 5126,
      "count": 3698,
      "max": [
        1,
        1,
        1
      ],
      "min": [
        -1,
        -1,
        -1
      ],
      "type": "VEC3"
    },
    {
      "bufferView": 1,
      "componentType": 5126,
      "count": 3698,
      "max": [
        1,
        -0
      ],
      "min": [
        0,
        -1
      ],
      "type": "VEC2"
    },
    {
      "bufferView": 0,
      "componentType": 5125,
      "count": 3816,
      "max": [
        3697
      ],
      "min": [
        0
      ],
      "type": "SCALAR"
    },
    {
      "bufferView": 2,
      "byteOffset": 88752,
      "componentType": 5126,
      "count": 4606,
      "max": [
        3.7323129177093506,
        1.4080849885940552,
        0.29773300886154175
      ],
      "min": [
        -3.9672679901123047,
        -0.68747901916503906,
        -0.29773300886154175
      ],
      "type": "VEC3"
    },
    {
      "bufferView": 2,
      "byteOffset": 144024,
      "componentType": 5126,
      "count": 4606,
      "max": [
        0.99817389249801636,
        0.99675291776657104,
        0.90867865085601807
      ],
      "min": [
        -0.98756420612335205,
        -0.98070269823074341,
        -0.90867936611175537
      ],
      "type": "VEC3"
    },
    {
      "bufferView": 1,
      "byteOffset": 29584,
      "componentType": 5126,
      "count": 4606,
      "max": [
        1,
        -0
      ],
      "min": [
        0,
        -1
      ],
      "type": "VEC2"
    },
    {
      "bufferView": 0,
      "byteOffset": 15264,
      "componentType": 5125,
      "count": 4608,
      "max": [
        4605
      ],
      "min": [
        0
      ],
      "type": "SCALAR"
    },
    {
      "bufferView": 2,
      "byteOffset": 199296,
      "componentType": 5126,
      "count": 446,
      "max": [
        4.0004181861877441,
        0.63221001625061035,
        0.41796299815177917
      ],
      "min": [
        -3.8618059158325195,
        -1.3557480573654175,
        -0.41796299815177917
      ],
      "type": "VEC3"
    },
    {
      "bufferView": 2,
      "byteOffset": 204648,
      "componentType": 5126,
      "count": 446,
      "max": [
        0.97035330533981323,
        0.99905258417129517,
        1
      ],
      "min": [
        -0.96996736526489258,
        -0.9989202618598938,
        -1
      ],
      "type": "VEC3"
    },
    {
      "bufferView": 1,
      "byteOffset": 66432,
      "componentType": 5126,
      "count": 446,
      "max": [
        1,
        -0
      ],
      "min": [
        0,
        -1
      ],
      "type": "VEC2"
    },
    {
      "bufferView": 0,
      "byteOffset": 33696,
      "componentType": 5125,
      "count": 576,
      "max": [
        445
      ],
      "min": [
        0
      ],
      "type": "SCALAR"
    },
    {
      "bufferView": 2,
      "byteOffset": 210000,
      "componentType": 5126,
      "count": 588,
      "max": [
        3.8751630783081055,
        2.2577760219573975,
        0.7168390154838562
      ],
      "min": [
        -4.360529899597168,
        -0.73315602540969849,
        -0.7168390154838562
      ],
      "type": "VEC3"
    },
    {
      "bufferView": 2,
      "byteOffset": 217056,
      "componentType": 5126,
      "count": 588,
      "max": [
        0.99784278869628906,
        0.99784249067306519,
        1
      ],
      "min": [
        -0.99784290790557861,
        -0.99784249067306519,
        -1
      ],
      "type": "VEC3"
    },
    {
      "bufferView": 1,
      "byteOffset": 70000,
      "componentType": 5126,
      "count": 588,
      "max": [
        1,
        -0
      ],
      "min": [
        0,
        -1
      ],
      "type": "VEC2"
    },
    {
      "bufferView": 0,
      "byteOffset": 36000,
      "componentType": 5125,
      "count": 600,
      "max": [
        587
      ],
      "min": [
        0
      ],
      "type": "SCALAR"
    },
    {
      "bufferView": 2,
      "byteOffset": 224112,
      "componentType": 5126,
      "count": 28,
      "max": [
        4.0426788330078125,
        0.85118097066879272,
        0.5
      ],
      "min": [
        -4.043036937713623,
        -0.88942998647689819,
        -0.5
      ],
      "type": "VEC3"
    },
    {
      "bufferView": 2,
      "byteOffset": 224448,
      "componentType": 5126,
      "count": 28,
      "max": [
        0.98069959878921509,
        0.98069876432418823,
        1
      ],
      "min": [
        -0.98069930076599121,
        -0.98069876432418823,
        -1
      ],
      "type": "VEC3"
    },
    {
      "bufferView": 1,
      "byteOffset": 74704,
      "componentType": 5126,
      "count": 28,
      "max": [
        0.875,
        -0
      ],
      "min": [
        0.125,
        -1
      ],
      "type": "VEC2"
    },
    {
      "bufferView": 0,
      "byteOffset": 38400,
      "componentType": 5125,
      "count": 36,
      "max": [
        27
      ],
      "min": [
        0
      ],
      "type": "SCALAR"
    }
  ],
  "asset": {
    "extras": {
      "author": "IronEqual (https://sketchfab.com/ie-niels)",
      "license": "CC-BY-4.0 (http://creativecommons.org/licenses/by/4.0/)",
      "source": "https://sketchfab.com/3d-models/seesaw-from-poly-by-google-b518b55b56f249ee902205775d2d0cdd",
      "title": "Seesaw from Poly by Google"
    },
    "generator": "Sketchfab-9.96.0",
    "version": "2.0"
  },
  "bufferViews": [
    {
      "buffer": 0,
      "byteLength": 38544,
      "byteOffset": 0,
      "name": "floatBufferViews",
      "target": 34963
    },
    {
      "buffer": 0,
      "byteLength": 74928,
      "byteOffset": 38544,
      "byteStride": 8,
      "name": "floatBufferViews",
      "target": 34962
    },
    {
      "buffer": 0,
      "byteLength": 224784,
      "byteOffset": 113472,
      "byteStride": 12,
      "name": "floatBufferViews",
      "target": 34962
    }
  ],
  "buffers": [
    {
      "byteLength": 338256,
      "uri": "scene.bin"
    }
  ],
  "materials": [
    {
      "doubleSided": true,
      "emissiveFactor": [
        0,
        0,
        0
      ],
      "name": "lambert2SG",
      "pbrMetallicRoughness": {
        "baseColorFactor": [
          0.01,
          0.10000000000000001,
          0.33000000000000002,
          1
        ],
        "metallicFactor": 0,
        "roughnessFactor": 0.96994800000000003
      }
    },
    {
      "doubleSided": true,
      "emissiveFactor": [
        0,
        0,
        0
      ],
      "name": "initialShadingGroup",
      "pbrMetallicRoughness": {
        "baseColorFactor": [
          0.5,
          0.5,
          0.5,
          1
        ],
        "metallicFactor": 0,
        "roughnessFactor": 0.96994800000000003
      }
    },
    {
      "doubleSided": true,
      "emissiveFactor": [
        0,
        0,
        0
      ],
      "name": "lambert5SG",
      "pbrMetallicRoughness": {
        "baseColorFactor": [
          0.029999999999999999,
          0.029999999999999999,
          0.040000000000000001,
          1
        ],
        "metallicFactor": 0,
        "roughnessFactor": 0.96994800000000003
      }
    },
    {
      "doubleSided": true,
      "emissiveFactor": [
        0,
        0,
        0
      ],
      "name": "lambert3SG",
      "pbrMetallicRoughness": {
        "baseColorFactor": [
          0.82999999999999996,
          0.5,
          0,
          1
        ],
        "metallicFactor": 0,
        "roughnessFactor": 0.96994800000000003
      }
    },
    {
      "doubleSided": true,
      "emissiveFactor": [
        0,
        0,
        0
      ],
      "name": "lambert4SG",
      "pbrMetallicRoughness": {
        "baseColorFactor": [
          0.64000000000000001,
          0,
          0,
          1
        ],
        "metallicFactor": 0,
        "roughnessFactor": 0.96994800000000003
      }
    }
  ],
  "meshes": [
    {
      "primitives": [
        {
          "attributes": {
            "NORMAL": 1,
            "POSITION": 0,
            "TEXCOORD_0": 2
          },
          "indices": 3,
          "material": 0,
          "mode": 4
        }
      ]
    },
    {
      "primitives": [
        {
          "attributes": {
            "NORMAL": 5,
            "POSITION": 4,
            "TEXCOORD_0": 6
          },
          "indices": 7,
          "material": 1,
          "mode": 4
        }
      ]
    },
    {
      "primitives": [
        {
          "attributes": {
            "NORMAL": 9,
            "POSITION": 8,
            "TEXCOORD_0": 10
          },
          "indices": 11,
          "material": 2,
          "mode": 4
        }
      ]
    },
    {
      "primitives": [
        {
          "attributes": {
            "NORMAL": 13,
            "POSITION": 12,
            "TEXCOORD_0": 14
          },
          "indices": 15,
          "material": 3,
          "mode": 4
        }
      ]
    },
    {
      "primitives": [
        {
          "attributes": {
            "NORMAL": 17,
            "POSITION": 16,
            "TEXCOORD_0": 18
          },
          "indices": 19,
          "material": 4,
          "mode": 4
        }
      ]
    }
  ],
  "nodes": [
    {
      "children": [
        1
      ],
      "name": "RootNode (gltf orientation matrix)",
      "rotation": [
        -0.70710678118654746,
        -0,
        -0,
        0.70710678118654757
      ]
    },
    {
      "children": [
        2
      ],
      "name": "RootNode (model correction matrix)"
    },
    {
      "children": [
        3
      ],
      "name": "root"
    },
    {
      "children": [
        4
      ],
      "matrix": [
        1,
        0,
        0,
        0,
        0,
        2.2204460492503131e-16,
        1,
        0,
        0,
        -1,
        2.2204460492503131e-16,
        0,
        0,
        0,
        0,
        1
      ],
      "name": "GLTF_SceneRootNode"
    },
    {
      "children": [
        5,
        6,
        7,
        8,
        9
      ],
      "name": "node-0_0"
    },
    {
      "mesh": 0,
      "name": ""
    },
    {
      "mesh": 1,
      "name": ""
    },
    {
      "mesh": 2,
      "name": ""
    },
    {
      "mesh": 3,
      "name": ""
    },
    {
      "mesh": 4,
      "name": ""
    }
  ],
  "scene": 0,
  "scenes": [
    {
      "name": "OSG_Scene",
      "nodes": [
        0
      ]
    }
  ]
}

